# xmcd
#
# Track frame offsets: 
#        150
#        19205
#        37030
#        56120
#
# Disc length: 1002 seconds
#
# Revision: 7
# Processed by: cddbd v1.5.2PL0 Copyright (c) Steve Scherf et al.
# Submitted via: ExactAudioCopy v0.99pb4
#
DISCID=3203e804
DTITLE=Bert Heerink - Heineken - De Hits
DYEAR=1995
DGENRE=Nederpop
TTITLE0=Doe Wat Je Wil
TTITLE1=Juli, July
TTITLE2=Najaarszon
TTITLE3=De Zon in de Winter
EXTD=
EXTT0=
EXTT1=
EXTT2=
EXTT3=
PLAYORDER=
